<svg width="623" height="465" viewBox="0 0 623 465" fill="none" xmlns="http://www.w3.org/2000/svg">
<mask id="mask0_441_85" style="mask-type:alpha" maskUnits="userSpaceOnUse" x="0" y="0" width="623" height="465">
<path d="M0 30C0 13.4315 13.4315 0 30 0H593C609.569 0 623 13.4315 623 30V435C623 451.569 609.569 465 593 465H30C13.4315 465 0 451.569 0 435V30Z" fill="#4A3AFF"/>
</mask>
<g mask="url(#mask0_441_85)">
<circle cx="341.77" cy="372.278" r="92.4849" transform="rotate(90 341.77 372.278)" fill="white" fill-opacity="0.1"/>
<circle cx="529.643" cy="184.793" r="93" transform="rotate(90 529.643 184.793)" fill="white" fill-opacity="0.1"/>
<path opacity="0.1" d="M249.285 -1.20704C249.285 11.0059 251.69 23.0992 256.364 34.3825C261.038 45.6658 267.888 55.9181 276.524 64.5539C285.16 73.1897 295.412 80.0401 306.695 84.7138C317.979 89.3875 330.072 91.793 342.285 91.793C354.498 91.793 366.591 89.3874 377.874 84.7138C389.158 80.0401 399.41 73.1897 408.046 64.5539C416.682 55.918 423.532 45.6658 428.206 34.3825C432.879 23.0992 435.285 11.0059 435.285 -1.20707L342.285 -1.20704L249.285 -1.20704Z" fill="white"/>
<path opacity="0.1" d="M155.837 277.957C168.098 277.957 180.238 275.542 191.565 270.85C202.893 266.158 213.185 259.281 221.855 250.611C230.524 241.942 237.401 231.649 242.093 220.322C246.785 208.995 249.2 196.854 249.2 184.593C249.2 172.333 246.785 160.192 242.093 148.865C237.401 137.538 230.524 127.245 221.855 118.576C213.185 109.906 202.893 103.029 191.565 98.3373C180.238 93.6454 168.097 91.2305 155.837 91.2305L155.837 184.594L155.837 277.957Z" fill="white"/>
<rect opacity="0.2" x="435.953" y="91.2891" width="186.664" height="186.666" transform="rotate(90 435.953 91.2891)" fill="white"/>
<path d="M622.616 277.954L523.172 374.676L435.952 464.617L435.952 277.954L622.616 277.954Z" fill="white" fill-opacity="0.15"/>
<path d="M435.953 91.2891L535.397 -5.43352L622.616 -95.3745L622.616 91.2891L435.953 91.2891Z" fill="white" fill-opacity="0.15"/>
</g>
</svg>
